<svg xmlns="http://www.w3.org/2000/svg" viewBox="0 0 32 32"><defs><style>.cls-1{fill:#3d3d3d;}.cls-2{fill:#dfdfde;}</style></defs><g id="Capa_2" data-name="Capa 2"><g id="Capa_1-2" data-name="Capa 1"><circle class="cls-1" cx="16" cy="16" r="16"/><rect class="cls-2" x="22.21" y="20.05" width="5.9" height="1.99" rx="0.95" transform="translate(4.12 46.21) rotate(-90)"/><rect class="cls-2" x="22.21" y="9.96" width="5.9" height="1.99" rx="0.95" transform="translate(14.21 36.12) rotate(-90)"/><path class="cls-2" d="M12.61,10.5v0l-.88,1.3s-1.52,2-1.53,2h0A2,2,0,0,1,8,14.5,2,2,0,0,1,6.6,13.1a2,2,0,0,1,1.62-2.56.42.42,0,0,0,.34-.42V8.44A.4.4,0,0,0,8.13,8a4.54,4.54,0,1,0,4,7.36v6.44H5.15a1.08,1.08,0,0,0,0,2.16h15a1.08,1.08,0,0,0,0-2.16H14.27V17.09H26.89a1.09,1.09,0,0,0,0-2.18H20.53a4.45,4.45,0,0,0,.67-2.36,4.54,4.54,0,0,0-8.59-2.05Zm6.09,2.05a2,2,0,1,1-2-2A2,2,0,0,1,18.7,12.55Z"/></g></g></svg>